<?xml version="1.0" encoding="UTF-8" standalone="no"?>
<!-- Created with Inkscape (http://www.inkscape.org/) -->

<svg
   width="180.737mm"
   height="31.641001mm"
   viewBox="0 0 180.737 31.641001"
   version="1.1"
   id="svg421"
   inkscape:version="1.2.2 (732a01da63, 2022-12-09)"
   sodipodi:docname="logo3.svg"
   xmlns:inkscape="http://www.inkscape.org/namespaces/inkscape"
   xmlns:sodipodi="http://sodipodi.sourceforge.net/DTD/sodipodi-0.dtd"
   xmlns="http://www.w3.org/2000/svg"
   xmlns:svg="http://www.w3.org/2000/svg">
  <sodipodi:namedview
     id="namedview423"
     pagecolor="#ffffff"
     bordercolor="#000000"
     borderopacity="0.25"
     inkscape:showpageshadow="2"
     inkscape:pageopacity="0.0"
     inkscape:pagecheckerboard="0"
     inkscape:deskcolor="#d1d1d1"
     inkscape:document-units="mm"
     showgrid="false"
     inkscape:zoom="0.84096521"
     inkscape:cx="564.82717"
     inkscape:cy="254.4695"
     inkscape:window-width="1440"
     inkscape:window-height="837"
     inkscape:window-x="1432"
     inkscape:window-y="-8"
     inkscape:window-maximized="1"
     inkscape:current-layer="layer1" />
  <defs
     id="defs418">
    <clipPath
       clipPathUnits="userSpaceOnUse"
       id="clipPath84">
      <path
         d="M 0,1080 H 1080 V 0 H 0 Z"
         id="path82" />
    </clipPath>
  </defs>
  <g
     inkscape:label="Capa 1"
     inkscape:groupmode="layer"
     id="layer1"
     transform="translate(-2.6617009,-1.9580255)">
    <g
       id="g78"
       transform="matrix(0.24676043,0,0,-0.23720379,-41.077995,146.37645)">
      <g
         id="g80"
         clip-path="url(#clipPath84)">
        <g
           id="g86"
           transform="translate(214.0107,524.3657)">
          <path
             d="m 0,0 c -8.235,0 -14.283,7.206 -14.283,18.529 0,12.997 4.889,19.302 14.283,19.302 9.521,0 14.283,-6.562 14.283,-20.331 C 14.283,6.82 8.106,0 0,0 M 13.769,50.699 V 42.85 c -3.99,6.433 -9.781,9.522 -17.758,9.522 -15.313,0 -27.666,-13.254 -27.666,-32.941 0,-16.6 7.206,-32.556 28.051,-32.556 8.236,0 15.056,3.346 17.373,9.008 V -14.54 c 0,-8.364 -7.079,-13.641 -15.957,-13.641 -3.031,0 -5.683,0.6 -7.843,1.715 v -15.16 c 2.82,-0.633 5.834,-0.966 9.001,-0.966 17.629,0 31.526,10.294 31.526,29.338 v 63.953 z"
             style="fill:#1f3a7d;fill-opacity:1;fill-rule:nonzero;stroke:none"
             id="path88" />
        </g>
        <path
           d="m 251.84,598.226 h 16.728 V 511.755 H 251.84 Z"
           style="fill:#1f3a7d;fill-opacity:1;fill-rule:nonzero;stroke:none"
           id="path90" />
        <g
           id="g92"
           transform="translate(389.2617,542.895)">
          <path
             d="m 0,0 c 0,12.997 -4.632,19.56 -14.411,19.56 -9.266,0 -14.026,-6.821 -14.026,-20.589 0,-10.68 6.176,-18.144 14.154,-18.144 C -5.919,-19.173 0,-11.323 0,0 m -44.265,-31.14 v 86.471 h 16.471 V 23.935 c 4.761,6.691 10.938,9.908 18.787,9.908 16.342,0 25.992,-13.512 25.992,-32.685 0,-21.36 -11.452,-33.971 -27.408,-33.971 -7.721,0 -13.639,2.96 -17.629,9.394 l -0.128,-7.721 z"
             style="fill:#1f3a7d;fill-opacity:1;fill-rule:nonzero;stroke:none"
             id="path94" />
        </g>
        <g
           id="g96"
           transform="translate(450.8955,542.7671)">
          <path
             d="m 0,0 c -1.673,-1.673 -4.633,-2.574 -10.809,-3.732 -9.522,-1.801 -12.611,-4.503 -12.611,-9.909 0,-4.76 2.831,-7.077 8.107,-7.077 8.622,0 15.055,6.306 15.184,13.769 z m 1.158,-31.012 c -0.514,1.544 -0.901,3.732 -1.029,5.662 -3.989,-4.375 -10.681,-7.335 -19.173,-7.335 -14.412,0 -21.103,7.078 -21.103,17.372 0,18.272 12.224,20.331 29.081,22.647 8.364,1.158 10.68,2.831 10.68,7.206 0,4.118 -4.118,6.563 -10.68,6.563 -7.592,0 -10.681,-3.732 -11.453,-9.394 h -15.57 c 0.258,13.125 7.464,22.262 27.795,22.262 20.073,0 27.022,-9.008 27.022,-24.964 v -40.019 z"
             style="fill:#1f3a7d;fill-opacity:1;fill-rule:nonzero;stroke:none"
             id="path98" />
        </g>
        <path
           d="m 474.955,598.226 h 16.728 v -86.471 h -16.728 z"
           style="fill:#1f3a7d;fill-opacity:1;fill-rule:nonzero;stroke:none"
           id="path100" />
        <g
           id="g102"
           transform="translate(536.8486,555.8921)">
          <path
             d="m 0,0 c -0.901,6.176 -4.247,8.363 -11.839,8.363 -6.305,0 -9.908,-1.544 -9.908,-5.275 0,-3.732 3.475,-5.276 10.294,-7.206 7.206,-2.059 14.026,-3.475 18.916,-5.404 6.691,-2.703 10.423,-7.078 10.423,-15.313 0,-13.125 -9.651,-20.975 -27.666,-20.975 -19.43,0 -30.24,9.136 -30.496,22.004 h 17.242 c 0,-5.919 5.018,-9.393 13.126,-9.393 5.919,0 11.194,1.802 11.194,6.562 0,4.504 -4.761,5.919 -10.165,7.206 -10.681,2.574 -16.6,4.375 -21.103,7.206 -5.919,3.732 -7.978,8.621 -7.978,14.284 0,10.679 7.334,18.787 26.636,18.787 C 6.948,20.846 15.184,13.64 16.084,0 Z"
             style="fill:#111721;fill-opacity:1;fill-rule:nonzero;stroke:none"
             id="path104" />
        </g>
        <g
           id="g106"
           transform="translate(599.7686,575.0649)">
          <path
             d="m 0,0 v -38.604 c 0,-6.82 -5.276,-11.837 -12.868,-11.837 -7.077,0 -10.681,3.988 -10.681,11.837 V 0 h -16.727 v -41.049 c 0,-13.896 9.908,-22.904 23.162,-22.904 7.848,0 14.798,3.346 17.114,9.008 v -10.294 c 0,-8.365 -5.558,-13.099 -11.581,-13.641 -4.637,-0.417 -9.32,-0.033 -12.105,2.569 v -15.407 c 3.293,-1.028 7.068,-1.573 11.332,-1.573 16.214,0 29.082,10.423 29.082,28.309 V 0 Z"
             style="fill:#111721;fill-opacity:1;fill-rule:nonzero;stroke:none"
             id="path108" />
        </g>
        <g
           id="g110"
           transform="translate(662.1748,555.8921)">
          <path
             d="m 0,0 c -0.901,6.176 -4.247,8.363 -11.839,8.363 -6.305,0 -9.908,-1.544 -9.908,-5.275 0,-3.732 3.475,-5.276 10.294,-7.206 7.206,-2.059 14.026,-3.475 18.916,-5.404 6.691,-2.703 10.423,-7.078 10.423,-15.313 0,-13.125 -9.651,-20.975 -27.666,-20.975 -19.43,0 -30.24,9.136 -30.496,22.004 h 17.242 c 0,-5.919 5.018,-9.393 13.126,-9.393 5.919,0 11.194,1.802 11.194,6.562 0,4.504 -4.761,5.919 -10.165,7.206 -10.681,2.574 -16.6,4.375 -21.103,7.206 -5.919,3.732 -7.978,8.621 -7.978,14.284 0,10.679 7.334,18.787 26.636,18.787 C 6.948,20.846 15.184,13.64 16.084,0 Z"
             style="fill:#111721;fill-opacity:1;fill-rule:nonzero;stroke:none"
             id="path112" />
        </g>
        <g
           id="g114"
           transform="translate(719.9482,549.5864)">
          <path
             d="m 0,0 h 15.569 v -14.154 c 0,-13.383 -7.72,-25.35 -25.606,-25.35 -18.529,0 -25.864,11.838 -25.864,25.479 v 56.618 h 16.47 V 25.479 h 35 V 13.64 h -35 v -25.993 c 0,-7.978 2.831,-12.61 9.651,-12.61 6.691,0 9.78,4.503 9.78,12.353 z"
             style="fill:#111721;fill-opacity:1;fill-rule:nonzero;stroke:none"
             id="path116" />
        </g>
        <g
           id="g118"
           transform="translate(784.0254,549.5864)">
          <path
             d="M 0,0 C -0.258,9.394 -6.434,13.897 -12.996,13.897 -19.687,13.897 -25.221,8.75 -25.864,0 Z m -26.379,-10.552 c 0.515,-9.521 5.919,-15.698 14.154,-15.698 5.405,0 10.166,2.702 11.325,7.077 h 17.242 c -3.861,-12.996 -14.283,-20.331 -27.794,-20.331 -21.104,0 -31.655,11.581 -31.655,34.485 0,19.56 11.195,32.17 30.626,32.17 19.429,0 29.724,-12.61 29.724,-37.703 z"
             style="fill:#111721;fill-opacity:1;fill-rule:nonzero;stroke:none"
             id="path120" />
        </g>
        <g
           id="g122"
           transform="translate(881.3027,511.7554)">
          <path
             d="m 0,0 v 38.346 c 0,7.592 -3.989,12.996 -9.908,12.996 -6.177,0 -10.681,-5.79 -10.681,-13.511 V 0 h -16.727 v 38.089 c 0,10.165 -2.703,12.738 -10.038,12.738 -6.691,0 -10.166,-4.117 -10.166,-12.352 V 0 h -16.727 v 63.31 h 15.698 v -9.265 c 4.247,8.363 10.166,10.937 18.53,10.937 8.622,0 12.739,-2.702 17.628,-10.037 3.475,6.949 9.137,10.037 17.115,10.037 12.739,0 21.618,-9.264 21.618,-21.103 V 0 Z"
             style="fill:#111721;fill-opacity:1;fill-rule:nonzero;stroke:none"
             id="path124" />
        </g>
        <g
           id="g126"
           transform="translate(298.0063,522.803)">
          <path
             d="m 0,0 c 0.772,22.547 -12.61,37.576 -17.373,41.486 -4.602,-5.715 -7.371,-12.97 -7.371,-20.879 0,-18.406 14.922,-33.328 33.328,-33.328 18.406,0 33.328,14.922 33.328,33.328 0,1.104 -0.061,2.193 -0.165,3.27 C 23.293,23.37 0,0 0,0"
             style="fill:#111721;fill-opacity:1;fill-rule:nonzero;stroke:none"
             id="path128" />
        </g>
        <g
           id="g130"
           transform="translate(302.6116,534.6516)">
          <path
             d="m 0,0 c 0,0 14.879,16.217 35.347,18.542 -4.045,13.85 -16.211,23.544 -31.368,23.544 -8.783,0 -16.023,-2.769 -21.977,-8.321 C -13.506,30.035 -0.791,18.786 0,0"
             style="fill:#1f3a7d;fill-opacity:1;fill-rule:nonzero;stroke:none"
             id="path132" />
        </g>
      </g>
    </g>
  </g>
</svg>
