<?xml version="1.0" standalone="no"?>
<!DOCTYPE svg PUBLIC "-//W3C//DTD SVG 20010904//EN"
 "http://www.w3.org/TR/2001/REC-SVG-20010904/DTD/svg10.dtd">
<svg version="1.0" xmlns="http://www.w3.org/2000/svg"
 width="258.000000pt" height="258.000000pt" viewBox="0 0 258.000000 258.000000"
 preserveAspectRatio="xMidYMid meet">
<metadata>
Created by potrace 1.14, written by Peter Selinger 2001-2017
</metadata>
<g transform="translate(0.000000,258.000000) scale(0.100000,-0.100000)"
fill="#000000" stroke="none">
<path d="M1025 2534 c-436 -78 -810 -394 -953 -804 -55 -158 -67 -230 -67
-410 0 -101 5 -192 14 -235 102 -515 535 -941 1045 -1030 114 -19 318 -19 432
0 307 54 596 233 789 490 99 131 185 334 219 514 21 109 21 323 0 432 -35 185
-121 384 -226 524 -121 160 -310 320 -478 405 -89 45 -246 96 -349 114 -115
20 -316 20 -426 0z m428 -425 c187 -47 343 -150 458 -302 102 -135 157 -283
174 -464 l7 -72 -44 -11 c-179 -47 -401 -147 -548 -245 -126 -85 -209 -156
-325 -277 l-104 -110 0 154 c-2 403 -122 758 -374 1100 l-20 27 24 21 c210
180 486 246 752 179z"/>
</g>
</svg>
